<svg id="Capa_1" enable-background="new 0 0 511.592 511.592" height="512" viewBox="0 0 511.592 511.592" width="512" xmlns="http://www.w3.org/2000/svg"><g><path d="m118.303 306.088c-4.567-.095-27.462-1.036-45.914-19.644-18.524-18.68-19.044-41.522-19.055-46.028v-94.546c0-35.845 29.191-65.173 64.868-65.173h278.21c35.678 0 64.868 29.328 64.868 65.173v94.546c-.011 4.506-.531 27.349-19.055 46.028-18.453 18.608-41.348 19.55-45.914 19.644-19.81 0-278.008 0-278.008 0z" fill="#aef2ab"/><path d="m451.142 275.946c-11.52 18.12-31.79 30.14-54.86 30.14h-277.95c-35.899 0-65-29.102-65-65v-95.39c0-23.07 12.02-43.34 30.14-54.86-6.43 10.07-10.14 22.03-10.14 34.86v110.39c0 27.614 22.386 50 50 50h292.95c12.83 0 24.79-3.72 34.86-10.14z" fill="#96d094"/><path d="m126.681 271.417c-21.742 0-39.53-17.59-39.53-39.088v-76.475c0-21.498 17.789-39.088 39.53-39.088h259.257c21.742 0 39.53 17.59 39.53 39.088v76.475c-.015 2.587-.35 16.481-11.612 27.606-11.231 11.094-25.028 11.236-27.618 11.214-16.452 0-259.557.268-259.557.268z" fill="#96d094"/><path d="m422.102 247.846c-1.71 3.97-4.31 8.19-8.25 12.09-11.23 11.09-25.02 11.23-27.61 11.21-16.46 0-259.56.27-259.56.27-21.74 0-39.53-17.59-39.53-39.09v-76.47c0-15.8 9.6-29.48 23.32-35.63-2.13 4.79-3.32 10.08-3.32 15.63v76.47c0 21.5 17.79 39.09 39.53 39.09 0 0 243.1-.27 259.56-.27 1.71.01 8.33-.04 15.86-3.3z" fill="#8bc089"/><g fill="#f7f06d"><path d="m425.529 56.894c-.159 0-.318-.005-.479-.015-4.134-.261-7.274-3.823-7.014-7.957l2.015-31.984c.261-4.133 3.827-7.253 7.957-7.014 4.134.261 7.274 3.823 7.014 7.957l-2.015 31.984c-.25 3.973-3.552 7.029-7.478 7.029z"/><path d="m455.736 73.886c-1.689 0-3.387-.566-4.787-1.729-3.187-2.646-3.625-7.375-.979-10.562l45.952-55.34c2.646-3.187 7.375-3.626 10.561-.979 3.187 2.646 3.625 7.375.979 10.562l-45.952 55.34c-1.483 1.785-3.621 2.708-5.774 2.708z"/><path d="m477.898 99.875c-3.212 0-6.184-2.08-7.171-5.312-1.209-3.962 1.021-8.154 4.983-9.363l26.189-7.996c3.96-1.21 8.153 1.021 9.363 4.982 1.21 3.962-1.021 8.154-4.983 9.363l-26.189 7.996c-.729.224-1.467.33-2.192.33z"/><path d="m84.063 372.376c-.159 0-.318-.005-.479-.015-4.134-.261-7.274-3.823-7.014-7.957l2.014-31.984c.261-4.134 3.835-7.25 7.957-7.014 4.134.261 7.274 3.823 7.014 7.957l-2.014 31.984c-.251 3.975-3.552 7.029-7.478 7.029z"/><path d="m9.896 378.74c-1.689 0-3.387-.566-4.787-1.729-3.187-2.646-3.625-7.375-.979-10.562l45.951-55.34c2.646-3.188 7.375-3.626 10.561-.979 3.187 2.646 3.625 7.375.979 10.562l-45.951 55.34c-1.483 1.785-3.62 2.708-5.774 2.708z"/><path d="m7.5 305.411c-3.212 0-6.184-2.08-7.171-5.312-1.209-3.962 1.021-8.154 4.983-9.363l26.189-7.996c3.961-1.21 8.154 1.021 9.363 4.982s-1.021 8.154-4.983 9.363l-26.189 7.996c-.729.223-1.467.33-2.192.33z"/></g><path d="m477.172 357.659c-15.094 0-27.33 12.236-27.33 27.33v-24.526c0-15.545-12.798-28.146-28.586-28.146s-28.586 12.601-28.586 28.146c-.01-7.53-.021-15.061-.031-22.591 0-15.545-12.798-28.146-28.586-28.146-13.19 0-24.286 8.797-27.583 20.756v-100.253c0-15.545-12.798-28.146-28.586-28.146s-28.586 12.601-28.586 28.146v204.299l-41.093-40.462c-11.164-10.992-29.263-10.992-40.427 0-11.163 10.992-11.163 28.813 0 39.806 19.483 20.436 38.965 40.872 58.448 61.308 3.015 3.295 9.208 9.054 18.749 11.613 3.113.835 5.988 1.17 8.458 1.253h192.484c15.788 0 28.586-12.601 28.586-28.146-.042-5.013.026-10.032 0-15.049 0-21.917 0-43.834 0-65.751 0-4.431 0-8.863 0-13.294v-.816c-.001-15.095-12.237-27.331-27.331-27.331z" fill="#f0c585"/><path d="m304.502 202.286c-2.05 3.87-3.2 8.27-3.2 12.94v228.36c0 4.436-5.347 6.675-8.508 3.563l-13.492-13.284v-203.64c0-14.409 11-26.299 25.2-27.939z" fill="#ebaa61"/><path d="m307.432 508.046h-24c-2.47-.08-5.34-.42-8.46-1.25-9.54-2.56-15.73-8.32-18.75-11.62-19.48-20.43-38.96-40.87-58.44-61.3-9.77-9.63-11-24.47-3.66-35.39 1.16 4.92 3.7 9.6 7.6 13.44 19.49 20.44 59.02 62.82 78.5 83.25 3.02 3.3 9.21 9.06 18.75 11.62 3.12.83 5.99 1.17 8.46 1.25z" fill="#ebaa61"/><path d="m360.372 309.956c-2.6 4.72-3.9 10.11-3.9 15.56v54.58c0 5.523-4.477 10-10 10-5.523 0-10-4.477-10-10v-48.128c0-1.118.194-2.229.564-3.284 3.487-9.933 12.445-17.35 23.336-18.728z" fill="#ebaa61"/><path d="m417.072 332.606c-2.201 4.41-3.659 9.471-4.178 14.908-.099 1.039-.122 2.085-.122 3.128v29.454c0 5.523-4.477 10-10 10-5.523 0-10-4.477-10-10v-21.165c0-.463.015-.928.063-1.388 1.328-12.819 11.398-23.08 24.237-24.937z" fill="#ebaa61"/><path d="m473.142 357.956c-2.1 6.86-3.3 14.72-3.3 23.08 0 5.003-4.056 9.06-9.06 9.06h-5.831c-2.822 0-5.11-2.288-5.11-5.11.001-13.72 10.121-25.08 23.301-27.03z" fill="#ebaa61"/></g></svg>