<svg height="512" viewBox="0 0 64 64" width="512" xmlns="http://www.w3.org/2000/svg"><path d="m3 15h58v34h-58z" fill="#d3843d"/><path d="m7 19h50v26h-50z" fill="#394d5c"/><g fill="#fcf05a"><path d="m19 31h-2v-5h-4v5h-2v-6a1 1 0 0 1 1-1h6a1 1 0 0 1 1 1z"/><path d="m18 40h-6a1 1 0 0 1 -1-1v-6h2v5h4v-5h2v6a1 1 0 0 1 -1 1z"/><path d="m53 31h-2v-5h-4v5h-2v-6a1 1 0 0 1 1-1h6a1 1 0 0 1 1 1z"/><path d="m52 40h-6a1 1 0 0 1 -1-1v-6h2v5h4v-5h2v6a1 1 0 0 1 -1 1z"/><path d="m43 31h-2v-5h-4v5h-2v-6a1 1 0 0 1 1-1h6a1 1 0 0 1 1 1z"/><path d="m42 40h-6a1 1 0 0 1 -1-1v-6h2v5h4v-5h2v6a1 1 0 0 1 -1 1z"/><path d="m27 31h-2v-4.233l-3.485 2.09-1.03-1.714 5-3a1 1 0 0 1 1.515.857z"/><path d="m25 33h2v7h-2z"/><path d="m29 26h4v2h-4z"/><path d="m29 37h4v2h-4z"/></g><path d="m8 11h48v4h-48z" fill="#ffcf83"/><path d="m5 49h16v4h-16z" fill="#394d5c"/><path d="m43 49h16v4h-16z" fill="#394d5c"/></svg>