<?xml version="1.0" encoding="iso-8859-1"?>
<!-- Generator: Adobe Illustrator 19.0.0, SVG Export Plug-In . SVG Version: 6.00 Build 0)  -->
<svg version="1.1" id="Capa_1" xmlns="http://www.w3.org/2000/svg" xmlns:xlink="http://www.w3.org/1999/xlink" x="0px" y="0px"
	 viewBox="0 0 201.386 201.386" style="enable-background:new 0 0 201.386 201.386;" xml:space="preserve">
<path style="fill:#FFDD95;" d="M165.427,54.613l-27.187-3.413v5.12c0-4.712-3.821-8.533-8.533-8.533
	c-4.712,0-8.533,3.821-8.533,8.533v-1.707v17.067v27.769c0,6.267,4.381,11.489,10.24,12.832v27.665h44.373v-27.665
	c5.859-1.345,10.24-6.566,10.24-12.832V75.212C186.026,63.836,176.804,54.613,165.427,54.613z"/>
<path d="M175.786,143.359h-44.373c-1.884,0-3.413-1.529-3.413-3.413v-25.178c-6.146-2.524-10.24-8.487-10.24-15.321V54.613
	c0-0.676,0.196-1.309,0.536-1.838c1.514-4.862,6.057-8.402,11.411-8.402c3.25,0,6.202,1.306,8.358,3.418
	c0.198-0.01,0.399-0.005,0.601,0.022l26.984,3.388c13.14,0.118,23.791,10.844,23.791,24.011v24.235
	c0,6.833-4.094,12.795-10.24,15.321v25.178C179.2,141.83,177.671,143.359,175.786,143.359z M134.826,136.533h37.547v-24.252
	c0-1.592,1.099-2.971,2.65-3.326c4.468-1.026,7.59-4.934,7.59-9.506V75.214c0-9.477-7.709-17.186-17.186-17.186
	c-0.142,0-0.285-0.009-0.425-0.027l-23.349-2.932v1.251c0,1.884-1.529,3.413-3.413,3.413s-3.413-1.529-3.413-3.413
	c0-2.823-2.297-5.12-5.12-5.12c-2.823,0-5.12,2.297-5.12,5.12v43.129c0,4.574,3.121,8.482,7.59,9.506
	c1.551,0.355,2.65,1.736,2.65,3.326V136.533z"/>
<path d="M138.24,71.679c-1.884,0-3.413-1.529-3.413-3.413V51.199c0-1.884,1.529-3.413,3.413-3.413s3.413,1.529,3.413,3.413v17.067
	C141.653,70.15,140.124,71.679,138.24,71.679z"/>
<path d="M155.306,71.679c-1.884,0-3.413-1.529-3.413-3.413v-10.24c0-1.884,1.529-3.413,3.413-3.413s3.413,1.529,3.413,3.413v10.24
	C158.72,70.15,157.191,71.679,155.306,71.679z"/>
<path d="M168.96,71.679c-1.884,0-3.413-1.529-3.413-3.413v-10.24c0-1.884,1.529-3.413,3.413-3.413s3.413,1.529,3.413,3.413v10.24
	C172.373,70.15,170.844,71.679,168.96,71.679z"/>
<rect x="128" y="139.946" style="fill:#FEDA38;" width="54.613" height="58.027"/>
<path d="M182.613,201.386H128c-1.884,0-3.413-1.529-3.413-3.413v-58.027c0-1.884,1.529-3.413,3.413-3.413h54.613
	c1.884,0,3.413,1.529,3.413,3.413v58.027C186.026,199.857,184.497,201.386,182.613,201.386z M131.413,194.559H179.2v-51.2h-47.787
	V194.559z"/>
<path style="fill:#FFDD95;" d="M35.959,40.959l27.187-3.413v5.12c0-4.712,3.821-8.533,8.533-8.533c4.712,0,8.533,3.821,8.533,8.533
	v-1.707v17.067v27.769c0,6.267-4.381,11.489-10.24,12.832v27.665H25.6V98.628c-5.859-1.345-10.24-6.566-10.24-12.832V61.559
	C15.36,50.182,24.583,40.959,35.959,40.959z"/>
<path d="M69.973,129.706H25.6c-1.884,0-3.413-1.529-3.413-3.413v-25.178c-6.146-2.524-10.24-8.487-10.24-15.321V61.559
	c0-13.167,10.651-23.893,23.791-24.011l26.984-3.388c0.201-0.027,0.403-0.034,0.601-0.022c2.156-2.113,5.108-3.418,8.358-3.418
	c5.354,0,9.895,3.54,11.411,8.402c0.34,0.531,0.536,1.162,0.536,1.838v44.836c0,6.833-4.094,12.795-10.24,15.321v25.177
	C73.386,128.177,71.857,129.706,69.973,129.706z M29.013,122.879H66.56V98.628c0-1.592,1.099-2.971,2.65-3.326
	c4.468-1.026,7.59-4.934,7.59-9.506V42.666c0-2.823-2.297-5.12-5.12-5.12s-5.12,2.297-5.12,5.12c0,1.884-1.529,3.413-3.413,3.413
	c-1.884,0-3.413-1.529-3.413-3.413v-1.251l-23.349,2.932c-0.142,0.019-0.283,0.027-0.425,0.027c-9.477,0-17.186,7.711-17.186,17.186
	v24.235c0,4.574,3.121,8.482,7.59,9.506c1.551,0.355,2.65,1.736,2.65,3.326V122.879z"/>
<path d="M63.146,58.026c-1.884,0-3.413-1.529-3.413-3.413V37.546c0-1.884,1.529-3.413,3.413-3.413c1.884,0,3.413,1.529,3.413,3.413
	v17.067C66.56,56.497,65.031,58.026,63.146,58.026z"/>
<path d="M46.08,58.026c-1.884,0-3.413-1.529-3.413-3.413v-10.24c0-1.884,1.529-3.413,3.413-3.413s3.413,1.529,3.413,3.413v10.24
	C49.493,56.497,47.964,58.026,46.08,58.026z"/>
<path d="M32.426,58.026c-1.884,0-3.413-1.529-3.413-3.413v-10.24c0-1.884,1.529-3.413,3.413-3.413c1.884,0,3.413,1.529,3.413,3.413
	v10.24C35.84,56.497,34.311,58.026,32.426,58.026z"/>
<rect x="18.773" y="126.293" style="fill:#EE5281;" width="54.613" height="71.68"/>
<path d="M73.386,201.386H18.773c-1.884,0-3.413-1.529-3.413-3.413v-71.68c0-1.884,1.529-3.413,3.413-3.413h54.613
	c1.884,0,3.413,1.529,3.413,3.413v71.68C76.8,199.857,75.271,201.386,73.386,201.386z M22.186,194.559h47.787v-64.853H22.186
	V194.559z"/>
<path d="M87.036,17.066c-0.65,0-1.309-0.184-1.889-0.573c-1.568-1.044-1.992-3.164-0.947-4.733l6.827-10.24
	c1.044-1.568,3.166-1.992,4.733-0.947c1.568,1.044,1.992,3.164,0.947,4.733l-6.827,10.24C89.223,16.532,88.141,17.066,87.036,17.066
	z"/>
<path d="M97.281,23.893c-1.251,0-2.458-0.689-3.057-1.886c-0.843-1.686-0.159-3.736,1.527-4.581l20.48-10.24
	c1.684-0.843,3.734-0.162,4.581,1.527c0.843,1.686,0.159,3.736-1.527,4.581l-20.48,10.24C98.316,23.778,97.795,23.893,97.281,23.893
	z"/>
<path d="M114.346,37.546h-13.653c-1.884,0-3.413-1.529-3.413-3.413s1.529-3.413,3.413-3.413h13.653c1.884,0,3.413,1.529,3.413,3.413
	S116.231,37.546,114.346,37.546z"/>
<g>
</g>
<g>
</g>
<g>
</g>
<g>
</g>
<g>
</g>
<g>
</g>
<g>
</g>
<g>
</g>
<g>
</g>
<g>
</g>
<g>
</g>
<g>
</g>
<g>
</g>
<g>
</g>
<g>
</g>
</svg>
