<?xml version="1.0" encoding="iso-8859-1"?>
<!-- Generator: Adobe Illustrator 19.0.0, SVG Export Plug-In . SVG Version: 6.00 Build 0)  -->
<svg version="1.1" id="Capa_1" xmlns="http://www.w3.org/2000/svg" xmlns:xlink="http://www.w3.org/1999/xlink" x="0px" y="0px"
	 fill="red" viewBox="0 0 490.816 490.816" style="enable-background:new 0 0 490.816 490.816;" xml:space="preserve">
<g>
	<path style="fill:#009688;" d="M480.149,234.741h-0.213c-5.891,0-10.667,4.776-10.667,10.667c0,5.891,4.776,10.667,10.667,10.667
		c5.891,0,10.667-4.776,10.667-10.667c0-5.891-4.776-10.667-10.667-10.667H480.149z"/>
	<path style="fill:#009688;" d="M437.483,234.741h-0.213c-5.891,0-10.667,4.776-10.667,10.667c0,5.891,4.776,10.667,10.667,10.667
		c5.891,0,10.667-4.776,10.667-10.667c0-5.891-4.776-10.667-10.667-10.667H437.483z"/>
	<path style="fill:#009688;" d="M394.816,234.741h-0.213c-5.891,0-10.667,4.776-10.667,10.667c0,5.891,4.776,10.667,10.667,10.667
		c5.891,0,10.667-4.776,10.667-10.667c0-5.891-4.776-10.667-10.667-10.667H394.816z"/>
	<path style="fill:#009688;" d="M352.149,234.741h-0.213c-5.891,0-10.667,4.776-10.667,10.667c0,5.891,4.776,10.667,10.667,10.667
		s10.667-4.776,10.667-10.667c0-5.891-4.776-10.667-10.667-10.667H352.149z"/>
	<path style="fill:#009688;" d="M309.483,234.741h-0.213c-5.891,0-10.667,4.776-10.667,10.667c0,5.891,4.776,10.667,10.667,10.667
		c5.891,0,10.667-4.776,10.667-10.667c0-5.891-4.776-10.667-10.667-10.667H309.483z"/>
	<path style="fill:#009688;" d="M266.816,234.741h-0.213c-5.891,0-10.667,4.776-10.667,10.667c0,5.891,4.776,10.667,10.667,10.667
		c5.891,0,10.667-4.776,10.667-10.667c0-5.891-4.776-10.667-10.667-10.667H266.816z"/>
	<path style="fill:#009688;" d="M224.149,234.741h-0.213c-5.891,0-10.667,4.776-10.667,10.667c0,5.891,4.776,10.667,10.667,10.667
		s10.667-4.776,10.667-10.667c0-5.891-4.776-10.667-10.667-10.667H224.149z"/>
	<path style="fill:#009688;" d="M437.483,192.075h-0.213c-5.891,0-10.667,4.776-10.667,10.667c0,5.891,4.776,10.667,10.667,10.667
		c5.891,0,10.667-4.776,10.667-10.667c0-5.891-4.776-10.667-10.667-10.667H437.483z"/>
	<path style="fill:#009688;" d="M394.816,192.075h-0.213c-5.891,0-10.667,4.776-10.667,10.667c0,5.891,4.776,10.667,10.667,10.667
		c5.891,0,10.667-4.776,10.667-10.667c0-5.891-4.776-10.667-10.667-10.667H394.816z"/>
	<path style="fill:#009688;" d="M352.149,192.075h-0.213c-5.891,0-10.667,4.776-10.667,10.667c0,5.891,4.776,10.667,10.667,10.667
		s10.667-4.776,10.667-10.667c0-5.891-4.776-10.667-10.667-10.667H352.149z"/>
	<path style="fill:#009688;" d="M309.483,192.075h-0.213c-5.891,0-10.667,4.776-10.667,10.667c0,5.891,4.776,10.667,10.667,10.667
		c5.891,0,10.667-4.776,10.667-10.667c0-5.891-4.776-10.667-10.667-10.667H309.483z"/>
	<path style="fill:#009688;" d="M266.816,192.075h-0.213c-5.891,0-10.667,4.776-10.667,10.667c0,5.891,4.776,10.667,10.667,10.667
		c5.891,0,10.667-4.776,10.667-10.667c0-5.891-4.776-10.667-10.667-10.667H266.816z"/>
	<path style="fill:#009688;" d="M394.816,149.408h-0.213c-5.891,0-10.667,4.776-10.667,10.667c0,5.891,4.776,10.667,10.667,10.667
		c5.891,0,10.667-4.776,10.667-10.667c0-5.891-4.776-10.667-10.667-10.667H394.816z"/>
	<path style="fill:#009688;" d="M352.149,149.408h-0.213c-5.891,0-10.667,4.776-10.667,10.667c0,5.891,4.776,10.667,10.667,10.667
		s10.667-4.776,10.667-10.667c0-5.891-4.776-10.667-10.667-10.667H352.149z"/>
	<path style="fill:#009688;" d="M309.483,149.408h-0.213c-5.891,0-10.667,4.776-10.667,10.667c0,5.891,4.776,10.667,10.667,10.667
		c5.891,0,10.667-4.776,10.667-10.667c0-5.891-4.776-10.667-10.667-10.667H309.483z"/>
	<path style="fill:#009688;" d="M266.816,149.408h-0.213c-5.891,0-10.667,4.776-10.667,10.667c0,5.891,4.776,10.667,10.667,10.667
		c5.891,0,10.667-4.776,10.667-10.667c0-5.891-4.776-10.667-10.667-10.667H266.816z"/>
	<path style="fill:#009688;" d="M352.149,106.741h-0.213c-5.891,0-10.667,4.776-10.667,10.667s4.776,10.667,10.667,10.667
		s10.667-4.776,10.667-10.667s-4.776-10.667-10.667-10.667H352.149z"/>
	<path style="fill:#009688;" d="M309.483,106.741h-0.213c-5.891,0-10.667,4.776-10.667,10.667s4.776,10.667,10.667,10.667
		c5.891,0,10.667-4.776,10.667-10.667s-4.776-10.667-10.667-10.667H309.483z"/>
	<path style="fill:#009688;" d="M266.816,106.741h-0.213c-5.891,0-10.667,4.776-10.667,10.667s4.776,10.667,10.667,10.667
		c5.891,0,10.667-4.776,10.667-10.667s-4.776-10.667-10.667-10.667H266.816z"/>
	<path style="fill:#009688;" d="M309.483,64.075h-0.213c-5.891,0-10.667,4.776-10.667,10.667c0,5.891,4.776,10.667,10.667,10.667
		c5.891,0,10.667-4.776,10.667-10.667c0-5.891-4.776-10.667-10.667-10.667H309.483z"/>
	<path style="fill:#009688;" d="M266.816,64.075h-0.213c-5.891,0-10.667,4.776-10.667,10.667c0,5.891,4.776,10.667,10.667,10.667
		c5.891,0,10.667-4.776,10.667-10.667c0-5.891-4.776-10.667-10.667-10.667H266.816z"/>
	<path style="fill:#009688;" d="M266.816,21.408h-0.213c-5.891,0-10.667,4.776-10.667,10.667s4.776,10.667,10.667,10.667
		c5.891,0,10.667-4.776,10.667-10.667s-4.776-10.667-10.667-10.667H266.816z"/>
	<path style="fill:#009688;" d="M437.483,277.408h-0.213c-5.891,0-10.667,4.776-10.667,10.667s4.776,10.667,10.667,10.667
		c5.891,0,10.667-4.776,10.667-10.667s-4.776-10.667-10.667-10.667H437.483z"/>
	<path style="fill:#009688;" d="M394.816,277.408h-0.213c-5.891,0-10.667,4.776-10.667,10.667s4.776,10.667,10.667,10.667
		c5.891,0,10.667-4.776,10.667-10.667s-4.776-10.667-10.667-10.667H394.816z"/>
	<path style="fill:#009688;" d="M352.149,277.408h-0.213c-5.891,0-10.667,4.776-10.667,10.667s4.776,10.667,10.667,10.667
		s10.667-4.776,10.667-10.667s-4.776-10.667-10.667-10.667H352.149z"/>
	<path style="fill:#009688;" d="M309.483,277.408h-0.213c-5.891,0-10.667,4.776-10.667,10.667s4.776,10.667,10.667,10.667
		c5.891,0,10.667-4.776,10.667-10.667s-4.776-10.667-10.667-10.667H309.483z"/>
	<path style="fill:#009688;" d="M266.816,277.408h-0.213c-5.891,0-10.667,4.776-10.667,10.667s4.776,10.667,10.667,10.667
		c5.891,0,10.667-4.776,10.667-10.667s-4.776-10.667-10.667-10.667H266.816z"/>
	<path style="fill:#009688;" d="M394.816,320.075h-0.213c-5.891,0-10.667,4.776-10.667,10.667c0,5.891,4.776,10.667,10.667,10.667
		c5.891,0,10.667-4.776,10.667-10.667c0-5.891-4.776-10.667-10.667-10.667H394.816z"/>
	<path style="fill:#009688;" d="M352.149,320.075h-0.213c-5.891,0-10.667,4.776-10.667,10.667c0,5.891,4.776,10.667,10.667,10.667
		s10.667-4.776,10.667-10.667c0-5.891-4.776-10.667-10.667-10.667H352.149z"/>
	<path style="fill:#009688;" d="M309.483,320.075h-0.213c-5.891,0-10.667,4.776-10.667,10.667c0,5.891,4.776,10.667,10.667,10.667
		c5.891,0,10.667-4.776,10.667-10.667c0-5.891-4.776-10.667-10.667-10.667H309.483z"/>
	<path style="fill:#009688;" d="M266.816,320.075h-0.213c-5.891,0-10.667,4.776-10.667,10.667c0,5.891,4.776,10.667,10.667,10.667
		c5.891,0,10.667-4.776,10.667-10.667c0-5.891-4.776-10.667-10.667-10.667H266.816z"/>
	<path style="fill:#009688;" d="M352.149,362.741h-0.213c-5.891,0-10.667,4.776-10.667,10.667c0,5.891,4.776,10.667,10.667,10.667
		s10.667-4.776,10.667-10.667c0-5.891-4.776-10.667-10.667-10.667H352.149z"/>
	<path style="fill:#009688;" d="M309.483,362.741h-0.213c-5.891,0-10.667,4.776-10.667,10.667c0,5.891,4.776,10.667,10.667,10.667
		c5.891,0,10.667-4.776,10.667-10.667c0-5.891-4.776-10.667-10.667-10.667H309.483z"/>
	<path style="fill:#009688;" d="M266.816,362.741h-0.213c-5.891,0-10.667,4.776-10.667,10.667c0,5.891,4.776,10.667,10.667,10.667
		c5.891,0,10.667-4.776,10.667-10.667c0-5.891-4.776-10.667-10.667-10.667H266.816z"/>
	<path style="fill:#009688;" d="M309.483,405.408h-0.213c-5.891,0-10.667,4.776-10.667,10.667s4.776,10.667,10.667,10.667
		c5.891,0,10.667-4.776,10.667-10.667s-4.776-10.667-10.667-10.667H309.483z"/>
	<path style="fill:#009688;" d="M266.816,405.408h-0.213c-5.891,0-10.667,4.776-10.667,10.667s4.776,10.667,10.667,10.667
		c5.891,0,10.667-4.776,10.667-10.667s-4.776-10.667-10.667-10.667H266.816z"/>
	<path style="fill:#009688;" d="M266.816,448.075h-0.213c-5.891,0-10.667,4.776-10.667,10.667c0,5.891,4.776,10.667,10.667,10.667
		c5.891,0,10.667-4.776,10.667-10.667c0-5.891-4.776-10.667-10.667-10.667H266.816z"/>
	<path style="fill:#009688;" d="M181.483,234.741h-0.213c-5.891,0-10.667,4.776-10.667,10.667c0,5.891,4.776,10.667,10.667,10.667
		s10.667-4.776,10.667-10.667c0-5.891-4.776-10.667-10.667-10.667H181.483z"/>
	<path style="fill:#009688;" d="M138.816,234.741h-0.213c-5.891,0-10.667,4.776-10.667,10.667c0,5.891,4.776,10.667,10.667,10.667
		c5.891,0,10.667-4.776,10.667-10.667c0-5.891-4.776-10.667-10.667-10.667H138.816z"/>
	<path style="fill:#009688;" d="M96.149,234.741h-0.213c-5.891,0-10.667,4.776-10.667,10.667c0,5.891,4.776,10.667,10.667,10.667
		c5.891,0,10.667-4.776,10.667-10.667c0-5.891-4.776-10.667-10.667-10.667H96.149z"/>
	<path style="fill:#009688;" d="M53.483,234.741h-0.213c-5.891,0-10.667,4.776-10.667,10.667c0,5.891,4.776,10.667,10.667,10.667
		s10.667-4.776,10.667-10.667c0-5.891-4.776-10.667-10.667-10.667H53.483z"/>
	<path style="fill:#009688;" d="M10.816,234.741h-0.149C4.776,234.741,0,239.517,0,245.408c0,5.891,4.776,10.667,10.667,10.667
		s10.667-4.776,10.667-10.667c0-5.891-4.776-10.667-10.667-10.667H10.816z"/>
	<path style="fill:#009688;" d="M224.149,277.408h-0.213c-5.891,0-10.667,4.776-10.667,10.667s4.776,10.667,10.667,10.667
		s10.667-4.776,10.667-10.667s-4.776-10.667-10.667-10.667H224.149z"/>
	<path style="fill:#009688;" d="M181.483,277.408h-0.213c-5.891,0-10.667,4.776-10.667,10.667s4.776,10.667,10.667,10.667
		s10.667-4.776,10.667-10.667s-4.776-10.667-10.667-10.667H181.483z"/>
	<path style="fill:#009688;" d="M138.816,277.408h-0.213c-5.891,0-10.667,4.776-10.667,10.667s4.776,10.667,10.667,10.667
		c5.891,0,10.667-4.776,10.667-10.667s-4.776-10.667-10.667-10.667H138.816z"/>
	<path style="fill:#009688;" d="M96.149,277.408h-0.213c-5.891,0-10.667,4.776-10.667,10.667s4.776,10.667,10.667,10.667
		c5.891,0,10.667-4.776,10.667-10.667s-4.776-10.667-10.667-10.667H96.149z"/>
	<path style="fill:#009688;" d="M53.483,277.408h-0.213c-5.891,0-10.667,4.776-10.667,10.667s4.776,10.667,10.667,10.667
		s10.667-4.776,10.667-10.667s-4.776-10.667-10.667-10.667H53.483z"/>
	<path style="fill:#009688;" d="M10.816,277.408h-0.149C4.776,277.408,0,282.184,0,288.075s4.776,10.667,10.667,10.667
		s10.667-4.776,10.667-10.667s-4.776-10.667-10.667-10.667H10.816z"/>
	<path style="fill:#009688;" d="M224.149,192.075h-0.213c-5.891,0-10.667,4.776-10.667,10.667c0,5.891,4.776,10.667,10.667,10.667
		s10.667-4.776,10.667-10.667c0-5.891-4.776-10.667-10.667-10.667H224.149z"/>
	<path style="fill:#009688;" d="M181.483,192.075h-0.213c-5.891,0-10.667,4.776-10.667,10.667
		c0.001,5.891,4.778,10.666,10.669,10.665s10.666-4.778,10.665-10.669C191.935,196.93,187.289,192.191,181.483,192.075z"/>
	<path style="fill:#009688;" d="M138.816,192.075h-0.213c-5.891,0-10.667,4.776-10.667,10.667
		c0.001,5.891,4.778,10.666,10.669,10.665s10.666-4.778,10.665-10.669C149.268,196.93,144.622,192.191,138.816,192.075z"/>
	<path style="fill:#009688;" d="M96.149,192.075h-0.213c-5.891,0-10.667,4.776-10.667,10.667
		c0.001,5.891,4.778,10.666,10.669,10.665s10.666-4.778,10.665-10.669C106.602,196.93,101.955,192.191,96.149,192.075z"/>
	<path style="fill:#009688;" d="M53.483,192.075h-0.213c-5.891,0-10.667,4.776-10.667,10.667
		c0.001,5.891,4.778,10.666,10.669,10.665s10.666-4.778,10.665-10.669C63.935,196.93,59.289,192.191,53.483,192.075z"/>
	<path style="fill:#009688;" d="M10.816,192.075h-0.149C4.776,192.075,0,196.85,0,202.741c0.001,5.891,4.777,10.666,10.668,10.666
		c5.891-0.001,10.666-4.777,10.666-10.668C21.333,196.907,16.648,192.156,10.816,192.075z"/>
</g>
<path d="M480.149,256.075c-5.891,0-10.667-4.776-10.667-10.667c0-5.891,4.776-10.667,10.667-10.667l0,0
	c5.891,0,10.667,4.776,10.667,10.667C490.816,251.299,486.04,256.075,480.149,256.075z"/>
<path d="M437.483,256.075c-5.891,0-10.667-4.776-10.667-10.667c0-5.891,4.776-10.667,10.667-10.667l0,0
	c5.891,0,10.667,4.776,10.667,10.667C448.149,251.299,443.374,256.075,437.483,256.075z"/>
<path d="M394.816,256.075c-5.891,0-10.667-4.776-10.667-10.667c0-5.891,4.776-10.667,10.667-10.667l0,0
	c5.891,0,10.667,4.776,10.667,10.667C405.483,251.299,400.707,256.075,394.816,256.075z"/>
<path d="M352.149,256.075c-5.891,0-10.667-4.776-10.667-10.667c0-5.891,4.776-10.667,10.667-10.667l0,0
	c5.891,0,10.667,4.776,10.667,10.667C362.816,251.299,358.04,256.075,352.149,256.075z"/>
<path d="M309.483,256.075c-5.891,0-10.667-4.776-10.667-10.667c0-5.891,4.776-10.667,10.667-10.667l0,0
	c5.891,0,10.667,4.776,10.667,10.667C320.149,251.299,315.374,256.075,309.483,256.075z"/>
<path d="M266.816,256.075c-5.891,0-10.667-4.776-10.667-10.667c0-5.891,4.776-10.667,10.667-10.667l0,0
	c5.891,0,10.667,4.776,10.667,10.667C277.483,251.299,272.707,256.075,266.816,256.075z"/>
<path d="M224.149,256.075c-5.891,0-10.667-4.776-10.667-10.667c0-5.891,4.776-10.667,10.667-10.667l0,0
	c5.891,0,10.667,4.776,10.667,10.667C234.816,251.299,230.04,256.075,224.149,256.075z"/>
<path d="M437.483,213.408c-5.891,0-10.667-4.776-10.667-10.667c0-5.891,4.776-10.667,10.667-10.667l0,0
	c5.891,0,10.667,4.776,10.667,10.667C448.149,208.632,443.374,213.408,437.483,213.408z"/>
<path d="M394.816,213.408c-5.891,0-10.667-4.776-10.667-10.667c0-5.891,4.776-10.667,10.667-10.667l0,0
	c5.891,0,10.667,4.776,10.667,10.667C405.483,208.632,400.707,213.408,394.816,213.408z"/>
<path d="M352.149,213.408c-5.891,0-10.667-4.776-10.667-10.667c0-5.891,4.776-10.667,10.667-10.667l0,0
	c5.891,0,10.667,4.776,10.667,10.667C362.816,208.632,358.04,213.408,352.149,213.408z"/>
<path d="M309.483,213.408c-5.891,0-10.667-4.776-10.667-10.667c0-5.891,4.776-10.667,10.667-10.667l0,0
	c5.891,0,10.667,4.776,10.667,10.667C320.149,208.632,315.374,213.408,309.483,213.408z"/>
<path d="M266.816,213.408c-5.891,0-10.667-4.776-10.667-10.667c0-5.891,4.776-10.667,10.667-10.667l0,0
	c5.891,0,10.667,4.776,10.667,10.667C277.483,208.632,272.707,213.408,266.816,213.408z"/>
<path d="M394.816,170.741c-5.891,0-10.667-4.776-10.667-10.667c0-5.891,4.776-10.667,10.667-10.667l0,0
	c5.891,0,10.667,4.776,10.667,10.667C405.483,165.966,400.707,170.741,394.816,170.741z"/>
<path d="M352.149,170.741c-5.891,0-10.667-4.776-10.667-10.667c0-5.891,4.776-10.667,10.667-10.667l0,0
	c5.891,0,10.667,4.776,10.667,10.667C362.816,165.966,358.04,170.741,352.149,170.741z"/>
<path d="M309.483,170.741c-5.891,0-10.667-4.776-10.667-10.667c0-5.891,4.776-10.667,10.667-10.667l0,0
	c5.891,0,10.667,4.776,10.667,10.667C320.149,165.966,315.374,170.741,309.483,170.741z"/>
<path d="M266.816,170.741c-5.891,0-10.667-4.776-10.667-10.667c0-5.891,4.776-10.667,10.667-10.667l0,0
	c5.891,0,10.667,4.776,10.667,10.667C277.483,165.966,272.707,170.741,266.816,170.741z"/>
<path d="M352.149,128.075c-5.891,0-10.667-4.776-10.667-10.667s4.776-10.667,10.667-10.667l0,0c5.891,0,10.667,4.776,10.667,10.667
	S358.04,128.075,352.149,128.075z"/>
<path d="M309.483,128.075c-5.891,0-10.667-4.776-10.667-10.667s4.776-10.667,10.667-10.667l0,0c5.891,0,10.667,4.776,10.667,10.667
	S315.374,128.075,309.483,128.075z"/>
<path d="M266.816,128.075c-5.891,0-10.667-4.776-10.667-10.667s4.776-10.667,10.667-10.667l0,0c5.891,0,10.667,4.776,10.667,10.667
	S272.707,128.075,266.816,128.075z"/>
<path d="M309.483,85.408c-5.891,0-10.667-4.776-10.667-10.667c0-5.891,4.776-10.667,10.667-10.667l0,0
	c5.891,0,10.667,4.776,10.667,10.667C320.149,80.632,315.374,85.408,309.483,85.408z"/>
<path d="M266.816,85.408c-5.891,0-10.667-4.776-10.667-10.667c0-5.891,4.776-10.667,10.667-10.667l0,0
	c5.891,0,10.667,4.776,10.667,10.667C277.483,80.632,272.707,85.408,266.816,85.408z"/>
<path d="M266.816,42.741c-5.891,0-10.667-4.776-10.667-10.667s4.776-10.667,10.667-10.667l0,0c5.891,0,10.667,4.776,10.667,10.667
	S272.707,42.741,266.816,42.741z"/>
<path d="M437.483,298.741c-5.891,0-10.667-4.776-10.667-10.667s4.776-10.667,10.667-10.667l0,0c5.891,0,10.667,4.776,10.667,10.667
	S443.374,298.741,437.483,298.741z"/>
<path d="M394.816,298.741c-5.891,0-10.667-4.776-10.667-10.667s4.776-10.667,10.667-10.667l0,0c5.891,0,10.667,4.776,10.667,10.667
	S400.707,298.741,394.816,298.741z"/>
<path d="M352.149,298.741c-5.891,0-10.667-4.776-10.667-10.667s4.776-10.667,10.667-10.667l0,0c5.891,0,10.667,4.776,10.667,10.667
	S358.04,298.741,352.149,298.741z"/>
<path d="M309.483,298.741c-5.891,0-10.667-4.776-10.667-10.667s4.776-10.667,10.667-10.667l0,0c5.891,0,10.667,4.776,10.667,10.667
	S315.374,298.741,309.483,298.741z"/>
<path d="M266.816,298.741c-5.891,0-10.667-4.776-10.667-10.667s4.776-10.667,10.667-10.667l0,0c5.891,0,10.667,4.776,10.667,10.667
	S272.707,298.741,266.816,298.741z"/>
<path d="M394.816,341.408c-5.891,0-10.667-4.776-10.667-10.667c0-5.891,4.776-10.667,10.667-10.667l0,0
	c5.891,0,10.667,4.776,10.667,10.667C405.483,336.632,400.707,341.408,394.816,341.408z"/>
<path d="M352.149,341.408c-5.891,0-10.667-4.776-10.667-10.667c0-5.891,4.776-10.667,10.667-10.667l0,0
	c5.891,0,10.667,4.776,10.667,10.667C362.816,336.632,358.04,341.408,352.149,341.408z"/>
<path d="M309.483,341.408c-5.891,0-10.667-4.776-10.667-10.667c0-5.891,4.776-10.667,10.667-10.667l0,0
	c5.891,0,10.667,4.776,10.667,10.667C320.149,336.632,315.374,341.408,309.483,341.408z"/>
<path d="M266.816,341.408c-5.891,0-10.667-4.776-10.667-10.667c0-5.891,4.776-10.667,10.667-10.667l0,0
	c5.891,0,10.667,4.776,10.667,10.667C277.483,336.632,272.707,341.408,266.816,341.408z"/>
<path d="M352.149,384.075c-5.891,0-10.667-4.776-10.667-10.667c0-5.891,4.776-10.667,10.667-10.667l0,0
	c5.891,0,10.667,4.776,10.667,10.667C362.816,379.299,358.04,384.075,352.149,384.075z"/>
<path d="M309.483,384.075c-5.891,0-10.667-4.776-10.667-10.667c0-5.891,4.776-10.667,10.667-10.667l0,0
	c5.891,0,10.667,4.776,10.667,10.667C320.149,379.299,315.374,384.075,309.483,384.075z"/>
<path d="M266.816,384.075c-5.891,0-10.667-4.776-10.667-10.667c0-5.891,4.776-10.667,10.667-10.667l0,0
	c5.891,0,10.667,4.776,10.667,10.667C277.483,379.299,272.707,384.075,266.816,384.075z"/>
<path d="M309.483,426.741c-5.891,0-10.667-4.776-10.667-10.667s4.776-10.667,10.667-10.667l0,0c5.891,0,10.667,4.776,10.667,10.667
	S315.374,426.741,309.483,426.741z"/>
<path d="M266.816,426.741c-5.891,0-10.667-4.776-10.667-10.667s4.776-10.667,10.667-10.667l0,0c5.891,0,10.667,4.776,10.667,10.667
	S272.707,426.741,266.816,426.741z"/>
<path d="M266.816,469.408c-5.891,0-10.667-4.776-10.667-10.667c0-5.891,4.776-10.667,10.667-10.667l0,0
	c5.891,0,10.667,4.776,10.667,10.667C277.483,464.632,272.707,469.408,266.816,469.408z"/>
<path d="M181.483,256.075c-5.891,0-10.667-4.776-10.667-10.667c0-5.891,4.776-10.667,10.667-10.667l0,0
	c5.891,0,10.667,4.776,10.667,10.667C192.149,251.299,187.374,256.075,181.483,256.075z"/>
<path d="M138.816,256.075c-5.891,0-10.667-4.776-10.667-10.667c0-5.891,4.776-10.667,10.667-10.667l0,0
	c5.891,0,10.667,4.776,10.667,10.667C149.483,251.299,144.707,256.075,138.816,256.075z"/>
<path d="M96.149,256.075c-5.891,0-10.667-4.776-10.667-10.667c0-5.891,4.776-10.667,10.667-10.667l0,0
	c5.891,0,10.667,4.776,10.667,10.667C106.816,251.299,102.04,256.075,96.149,256.075z"/>
<path d="M53.483,256.075c-5.891,0-10.667-4.776-10.667-10.667c0-5.891,4.776-10.667,10.667-10.667l0,0
	c5.891,0,10.667,4.776,10.667,10.667C64.149,251.299,59.374,256.075,53.483,256.075z"/>
<path d="M10.816,256.075c-5.891,0-10.667-4.776-10.667-10.667c0-5.891,4.776-10.667,10.667-10.667l0,0
	c5.891,0,10.667,4.776,10.667,10.667C21.483,251.299,16.707,256.075,10.816,256.075z"/>
<path d="M224.149,298.741c-5.891,0-10.667-4.776-10.667-10.667s4.776-10.667,10.667-10.667l0,0c5.891,0,10.667,4.776,10.667,10.667
	S230.04,298.741,224.149,298.741z"/>
<path d="M181.483,298.741c-5.891,0-10.667-4.776-10.667-10.667s4.776-10.667,10.667-10.667l0,0c5.891,0,10.667,4.776,10.667,10.667
	S187.374,298.741,181.483,298.741z"/>
<path d="M138.816,298.741c-5.891,0-10.667-4.776-10.667-10.667s4.776-10.667,10.667-10.667l0,0c5.891,0,10.667,4.776,10.667,10.667
	S144.707,298.741,138.816,298.741z"/>
<path d="M96.149,298.741c-5.891,0-10.667-4.776-10.667-10.667s4.776-10.667,10.667-10.667l0,0c5.891,0,10.667,4.776,10.667,10.667
	S102.04,298.741,96.149,298.741z"/>
<path d="M53.483,298.741c-5.891,0-10.667-4.776-10.667-10.667s4.776-10.667,10.667-10.667l0,0c5.891,0,10.667,4.776,10.667,10.667
	S59.374,298.741,53.483,298.741z"/>
<path d="M10.816,298.741c-5.891,0-10.667-4.776-10.667-10.667s4.776-10.667,10.667-10.667l0,0c5.891,0,10.667,4.776,10.667,10.667
	S16.707,298.741,10.816,298.741z"/>
<path d="M224.149,213.408c-5.891,0-10.667-4.776-10.667-10.667c0-5.891,4.776-10.667,10.667-10.667l0,0
	c5.891,0,10.667,4.776,10.667,10.667C234.816,208.632,230.04,213.408,224.149,213.408z"/>
<path d="M181.483,213.408c-5.891,0-10.667-4.776-10.667-10.667c0-5.891,4.776-10.667,10.667-10.667l0,0
	c5.891,0,10.667,4.776,10.667,10.667C192.149,208.632,187.374,213.408,181.483,213.408z"/>
<path d="M138.816,213.408c-5.891,0-10.667-4.776-10.667-10.667c0-5.891,4.776-10.667,10.667-10.667l0,0
	c5.891,0,10.667,4.776,10.667,10.667C149.483,208.632,144.707,213.408,138.816,213.408z"/>
<path d="M96.149,213.408c-5.891,0-10.667-4.776-10.667-10.667c0-5.891,4.776-10.667,10.667-10.667l0,0
	c5.891,0,10.667,4.776,10.667,10.667C106.816,208.632,102.04,213.408,96.149,213.408z"/>
<path d="M53.483,213.408c-5.891,0-10.667-4.776-10.667-10.667c0-5.891,4.776-10.667,10.667-10.667l0,0
	c5.891,0,10.667,4.776,10.667,10.667C64.149,208.632,59.374,213.408,53.483,213.408z"/>
<path d="M10.816,213.408c-5.891,0-10.667-4.776-10.667-10.667c0-5.891,4.776-10.667,10.667-10.667l0,0
	c5.891,0,10.667,4.776,10.667,10.667C21.483,208.632,16.707,213.408,10.816,213.408z"/>
<g>
</g>
<g>
</g>
<g>
</g>
<g>
</g>
<g>
</g>
<g>
</g>
<g>
</g>
<g>
</g>
<g>
</g>
<g>
</g>
<g>
</g>
<g>
</g>
<g>
</g>
<g>
</g>
<g>
</g>
</svg>
