<svg height="512pt" viewBox="0 -72 512 512" width="512pt" xmlns="http://www.w3.org/2000/svg"><path d="m492 256.183594h-29.941406v-236.183594c0-11.046875-8.953125-20-20-20h-372.117188c-11.046875 0-20 8.953125-20 20v236.183594h-29.941406c-11.046875 0-20 8.953125-20 20v70.816406c0 11.046875 8.953125 20 20 20h472c11.046875 0 20-8.953125 20-20v-70.816406c0-11.046875-8.953125-20-20-20zm-402.058594-216.183594h332.117188v216.183594h-332.117188zm382.058594 287h-432v-30.816406h432zm-90.019531-193.101562c7.808593 7.808593 7.804687 20.476562 0 28.28125l-35.3125 35.316406c-7.8125 7.8125-20.476563 7.808594-28.285157 0-7.8125-7.8125-7.808593-20.476563 0-28.285156l21.171876-21.171876-21.171876-21.171874c-7.808593-7.8125-7.808593-20.472657 0-28.285157 7.8125-7.808593 20.476563-7.808593 28.285157 0zm-188.363281 35.3125c7.808593 7.808593 7.8125 20.472656 0 28.285156-7.8125 7.808594-20.472657 7.808594-28.285157 0l-35.3125-35.316406c-7.808593-7.808594-7.804687-20.476563 0-28.28125l35.3125-35.316407c7.8125-7.808593 20.476563-7.808593 28.285157 0 7.808593 7.8125 7.808593 20.476563 0 28.285157l-21.171876 21.171874zm0 0"/></svg>