<svg height="512pt" viewBox="0 -56 512 512" width="512pt" xmlns="http://www.w3.org/2000/svg"><path d="m10 10.007812h492v66.019532h-492zm0 0" fill="#ffd469"/><path d="m105 276.878906h-40c-5.523438 0-10-4.476562-10-10v-102.035156c0-5.523438 4.476562-10 10-10h40c5.523438 0 10 4.476562 10 10v102.035156c0 5.523438-4.476562 10-10 10zm0 0" fill="#b2edf7"/><path d="m447 276.878906h-40c-5.523438 0-10-4.476562-10-10v-102.035156c0-5.523438 4.476562-10 10-10h40c5.523438 0 10 4.476562 10 10v102.035156c0 5.523438-4.476562 10-10 10zm0 0" fill="#b2edf7"/><path d="m387 305.890625h-262c-5.523438 0-10-4.480469-10-10v-160.054687c0-5.523438 4.476562-10 10-10h262c5.523438 0 10 4.476562 10 10v160.054687c0 5.519531-4.476562 10-10 10zm0 0" fill="#2ec8e3"/><path d="m511.988281 9.492188c-.269531-5.292969-4.636719-9.492188-9.988281-9.492188h-492c-5.351562 0-9.71875 4.199219-9.9882812 9.492188-.0117188.171874-.0117188.339843-.0117188.511718v379.992188c0 5.523437 4.480469 10.003906 10 10.003906h492c5.519531 0 10-4.480469 10-10.003906v-379.992188c0-.171875 0-.339844-.011719-.511718zm-19.988281 370.5h-472v-293.964844h472zm0-313.972657h-472v-46.132812h472zm0 0"/><path d="m171 53.644531h-80c-5.523438 0-10-4.476562-10-10 0-5.527343 4.476562-10.003906 10-10.003906h80c5.523438 0 10 4.476563 10 10.003906 0 5.523438-4.476562 10-10 10zm0 0"/><path d="m51.019531 53.644531c-5.523437 0-10.003906-4.476562-10.003906-10 0-5.527343 4.472656-10.003906 9.996094-10.003906h.007812c5.523438 0 10 4.476563 10 10.003906 0 5.523438-4.476562 10-10 10zm0 0"/><path d="m447 144.84375h-40v-9.003906c0-11.03125-8.96875-20.003906-20-20.003906h-262c-11.03125 0-20 8.972656-20 20.003906v9.003906h-40c-11.03125 0-20 8.972656-20 20.003906v102.03125c0 11.035156 8.96875 20.007813 20 20.007813h40v9.003906c0 11.03125 8.96875 20.003906 20 20.003906h262c11.03125 0 20-8.972656 20-20.003906v-9.003906h40c11.03125 0 20-8.972657 20-20.007813v-102.03125c0-11.03125-8.96875-20.003906-20-20.003906zm-342 122.035156h-40v-102.03125h40l.011719 102.03125s0 0-.011719 0zm282.011719 29.011719s0 0-.011719 0h-262v-160.050781h262v29.011718l.011719 102.308594zm59.988281-29.011719h-40v-102.03125h40l.011719 102.03125s0 0-.011719 0zm0 0"/><path d="m184.640625 254.847656c-2.5 0-5.003906-.933594-6.945313-2.808594l-30-28.980468c-1.953124-1.886719-3.054687-4.484375-3.054687-7.195313 0-2.714843 1.101563-5.3125 3.054687-7.195312l30-28.984375c3.972657-3.835938 10.304688-3.726563 14.140626.246094 3.835937 3.976562 3.726562 10.308593-.246094 14.144531l-22.554688 21.789062 22.554688 21.785157c3.972656 3.839843 4.082031 10.171874.246094 14.144531-1.964844 2.03125-4.578126 3.054687-7.195313 3.054687zm0 0"/><path d="m328.359375 254.847656c-2.617187 0-5.230469-1.023437-7.195313-3.054687-3.835937-3.972657-3.726562-10.304688.246094-14.144531l22.554688-21.785157-22.554688-21.789062c-3.972656-3.835938-4.082031-10.167969-.246094-14.144531 3.839844-3.972657 10.167969-4.082032 14.140626-.246094l30 28.984375c1.953124 1.882812 3.054687 4.480469 3.054687 7.195312 0 2.710938-1.101563 5.308594-3.054687 7.195313l-30 28.980468c-1.941407 1.875-4.445313 2.808594-6.945313 2.808594zm0 0"/><path d="m256.019531 351.984375c-5.523437 0-10.003906-4.476563-10.003906-10 0-5.527344 4.472656-10.003906 9.996094-10.003906h.007812c5.523438 0 10 4.476562 10 10.003906 0 5.523437-4.476562 10-10 10zm0 0"/><path d="m296.019531 351.984375c-5.523437 0-10.003906-4.476563-10.003906-10 0-5.527344 4.472656-10.003906 9.996094-10.003906h.007812c5.523438 0 10 4.476562 10 10.003906 0 5.523437-4.476562 10-10 10zm0 0"/><path d="m216.019531 351.984375c-5.523437 0-10.003906-4.476563-10.003906-10 0-5.527344 4.472656-10.003906 9.996094-10.003906h.007812c5.523438 0 10 4.476562 10 10.003906 0 5.523437-4.476562 10-10 10zm0 0"/></svg>