<?xml version="1.0" encoding="iso-8859-1"?>
<!-- Generator: Adobe Illustrator 19.0.0, SVG Export Plug-In . SVG Version: 6.00 Build 0)  -->
<svg version="1.1" id="Capa_1" xmlns="http://www.w3.org/2000/svg" xmlns:xlink="http://www.w3.org/1999/xlink" x="0px" y="0px"
	 viewBox="0 0 480.009 480.009" style="enable-background:new 0 0 480.009 480.009;" xml:space="preserve">
<path style="fill:#A6ADB9;" d="M416.005,120.009c-8.577,0.008-17.037,1.995-24.72,5.808c-5.523-43.729-45.45-74.702-89.179-69.179
	c-11.353,1.434-22.266,5.293-31.997,11.315c-24.295-52.008-86.15-74.473-138.158-50.179C95.356,34.87,71.979,71.618,72.005,112.009
	c0,2.936,0.2,5.824,0.44,8.704c-30.54-4.884-59.256,15.915-64.14,46.455s15.915,59.256,46.455,64.14
	c3.057,0.489,6.149,0.723,9.245,0.701h352c30.928,0,56-25.072,56-56S446.933,120.009,416.005,120.009L416.005,120.009z"/>
<path d="M64.005,240.009h352c35.346,0,64-28.654,64-64s-28.654-64-64-64c-6.325-0.01-12.615,0.937-18.656,2.808
	c-11.589-47.081-59.15-75.853-106.231-64.264c-6.104,1.502-12.029,3.656-17.673,6.424c-30.364-53.85-98.633-72.889-152.483-42.526
	c-35.206,19.851-56.977,57.14-56.958,97.558c-35.346,0-64,28.654-64,64S28.658,240.009,64.005,240.009z M64.005,128.009
	c2.412,0.022,4.819,0.225,7.2,0.608c4.367,0.669,8.45-2.329,9.119-6.696c0.095-0.619,0.117-1.247,0.065-1.872
	c-0.216-2.656-0.408-5.328-0.408-8c-0.043-52.984,42.874-95.971,95.858-96.014c37.295-0.03,71.228,21.556,87.006,55.35
	c1.879,3.999,6.643,5.718,10.642,3.84c0.274-0.129,0.54-0.273,0.798-0.432c33.728-20.87,77.989-10.446,98.858,23.283
	c5.421,8.76,8.893,18.585,10.182,28.805c0.563,4.382,4.572,7.478,8.954,6.915c0.878-0.113,1.732-0.371,2.526-0.763
	c6.582-3.296,13.839-5.016,21.2-5.024c26.51,0,48,21.49,48,48s-21.49,48-48,48l0,0h-352c-26.51,0-48-21.49-48-48
	S37.495,128.009,64.005,128.009L64.005,128.009z"/>
<g>
	<path style="fill:#75E6FF;" d="M128.005,384.009c0-4.418-3.582-8-8-8h-12.688l10.344-10.344c3.07-3.178,2.982-8.242-0.196-11.312
		c-3.1-2.994-8.015-2.994-11.116,0l-10.344,10.344v-12.688c0-4.418-3.582-8-8-8s-8,3.582-8,8v12.688l-10.344-10.344
		c-3.178-3.069-8.243-2.982-11.312,0.196c-2.994,3.1-2.994,8.015,0,11.116l10.344,10.344H56.005c-4.418,0-8,3.582-8,8s3.582,8,8,8
		h12.688l-10.344,10.344c-3.178,3.07-3.266,8.134-0.196,11.312s8.134,3.266,11.312,0.196c0.067-0.064,0.132-0.13,0.196-0.196
		l10.344-10.344v12.688c0,4.418,3.582,8,8,8s8-3.582,8-8v-12.688l10.344,10.344c3.178,3.069,8.243,2.982,11.312-0.196
		c2.994-3.1,2.994-8.015,0-11.116l-10.344-10.344h12.688C124.423,392.009,128.005,388.428,128.005,384.009z"/>
	<path style="fill:#75E6FF;" d="M272.005,336.009c4.418,0,8-3.582,8-8v-12.688l10.344,10.344c3.178,3.07,8.242,2.982,11.312-0.196
		c2.995-3.1,2.995-8.016,0-11.116l-10.344-10.344h12.688c4.418,0,8-3.582,8-8s-3.582-8-8-8h-12.688l10.344-10.344
		c3.07-3.178,2.982-8.242-0.196-11.312c-3.1-2.995-8.016-2.995-11.116,0l-10.344,10.344v-12.688c0-4.418-3.582-8-8-8s-8,3.582-8,8
		v12.688l-10.344-10.344c-3.178-3.07-8.242-2.982-11.312,0.196c-2.995,3.1-2.995,8.016,0,11.116l10.344,10.344h-12.688
		c-4.418,0-8,3.582-8,8s3.582,8,8,8h12.688l-10.344,10.344c-3.178,3.07-3.266,8.134-0.196,11.312
		c3.07,3.178,8.134,3.266,11.312,0.196c0.066-0.064,0.132-0.129,0.196-0.196l10.344-10.344v12.688
		C264.005,332.428,267.586,336.009,272.005,336.009z"/>
	<path style="fill:#75E6FF;" d="M264.005,424.009c0-4.418-3.582-8-8-8h-12.688l10.344-10.344c3.07-3.178,2.982-8.242-0.196-11.312
		c-3.1-2.995-8.016-2.995-11.116,0l-10.344,10.344v-12.688c0-4.418-3.582-8-8-8s-8,3.582-8,8v12.688l-10.344-10.344
		c-3.178-3.069-8.243-2.982-11.312,0.196c-2.994,3.1-2.994,8.015,0,11.116l10.344,10.344h-12.688c-4.418,0-8,3.582-8,8s3.582,8,8,8
		h12.688l-10.344,10.344c-3.178,3.069-3.266,8.134-0.196,11.312c3.069,3.178,8.134,3.266,11.312,0.196
		c0.067-0.064,0.132-0.13,0.196-0.196l10.344-10.344v12.688c0,4.418,3.582,8,8,8s8-3.582,8-8v-12.688l10.344,10.344
		c3.178,3.07,8.242,2.982,11.312-0.196c2.995-3.1,2.995-8.016,0-11.116l-10.344-10.344h12.688
		C260.423,432.009,264.005,428.428,264.005,424.009z"/>
	<path style="fill:#75E6FF;" d="M432.005,376.009c0-4.418-3.582-8-8-8h-12.688l10.344-10.344c3.07-3.178,2.982-8.242-0.196-11.312
		c-3.1-2.995-8.016-2.995-11.116,0l-10.344,10.344v-12.688c0-4.418-3.582-8-8-8s-8,3.582-8,8v12.688l-10.344-10.344
		c-3.178-3.07-8.242-2.982-11.312,0.196c-2.995,3.1-2.995,8.016,0,11.116l10.344,10.344h-12.688c-4.418,0-8,3.582-8,8s3.582,8,8,8
		h12.688l-10.344,10.344c-3.178,3.07-3.266,8.134-0.196,11.312c3.07,3.178,8.134,3.266,11.312,0.196
		c0.066-0.064,0.132-0.129,0.196-0.196l10.344-10.344v12.688c0,4.418,3.582,8,8,8s8-3.582,8-8v-12.688l10.344,10.344
		c3.178,3.07,8.242,2.982,11.312-0.196c2.995-3.1,2.995-8.016,0-11.116l-10.344-10.344h12.688
		C428.423,384.009,432.005,380.428,432.005,376.009z"/>
</g>
<path d="M160.005,264.009v32c0,4.418,3.582,8,8,8s8-3.582,8-8v-32c0-4.418-3.582-8-8-8S160.005,259.591,160.005,264.009z"/>
<path d="M216.005,360.009v-32c0-4.418-3.582-8-8-8s-8,3.582-8,8v32c0,4.418,3.582,8,8,8S216.005,364.428,216.005,360.009z"/>
<path d="M48.005,272.009c0-4.418-3.582-8-8-8s-8,3.582-8,8v32c0,4.418,3.582,8,8,8s8-3.582,8-8V272.009z"/>
<path d="M120.005,320.009v-32c0-4.418-3.582-8-8-8c-4.418,0-8,3.582-8,8v32c0,4.418,3.582,8,8,8
	C116.423,328.009,120.005,324.428,120.005,320.009z"/>
<path d="M144.005,424.009v32c0,4.418,3.582,8,8,8s8-3.582,8-8v-32c0-4.418-3.582-8-8-8S144.005,419.591,144.005,424.009z"/>
<path d="M360.005,320.009c4.418,0,8-3.582,8-8v-32c0-4.418-3.582-8-8-8s-8,3.582-8,8v32
	C352.005,316.428,355.586,320.009,360.005,320.009z"/>
<path d="M432.005,264.009c0-4.418-3.582-8-8-8s-8,3.582-8,8v32c0,4.418,3.582,8,8,8s8-3.582,8-8V264.009z"/>
<path d="M40.005,432.009c-4.418,0-8,3.582-8,8v32c0,4.418,3.582,8,8,8s8-3.582,8-8v-32
	C48.005,435.591,44.423,432.009,40.005,432.009z"/>
<path d="M312.005,400.009c4.418,0,8-3.582,8-8v-32c0-4.418-3.582-8-8-8s-8,3.582-8,8v32
	C304.005,396.428,307.586,400.009,312.005,400.009z"/>
<path d="M328.005,440.009v32c0,4.418,3.582,8,8,8s8-3.582,8-8v-32c0-4.418-3.582-8-8-8S328.005,435.591,328.005,440.009z"/>
<path d="M440.005,424.009v32c0,4.418,3.582,8,8,8s8-3.582,8-8v-32c0-4.418-3.582-8-8-8S440.005,419.591,440.005,424.009z"/>
<g>
</g>
<g>
</g>
<g>
</g>
<g>
</g>
<g>
</g>
<g>
</g>
<g>
</g>
<g>
</g>
<g>
</g>
<g>
</g>
<g>
</g>
<g>
</g>
<g>
</g>
<g>
</g>
<g>
</g>
</svg>
