<?xml version="1.0" encoding="iso-8859-1"?>
<!-- Generator: Adobe Illustrator 19.0.0, SVG Export Plug-In . SVG Version: 6.00 Build 0)  -->
<svg version="1.1" id="Capa_1" xmlns="http://www.w3.org/2000/svg" xmlns:xlink="http://www.w3.org/1999/xlink" x="0px" y="0px"
	 viewBox="0 0 204.8 204.8" style="enable-background:new 0 0 204.8 204.8;" xml:space="preserve">
<path style="fill:#EE5281;" d="M47.2,30.72l15.654-15.654c2.666-2.666,2.666-6.987,0-9.653c-2.664-2.666-6.991-2.666-9.653,0
	L37.547,21.067L21.893,5.414c-2.664-2.666-6.991-2.666-9.653,0c-2.666,2.666-2.666,6.987,0,9.653L27.894,30.72L12.24,46.374
	c-2.666,2.666-2.666,6.987,0,9.653c1.331,1.335,3.081,2,4.826,2s3.495-0.667,4.826-2l15.654-15.654L53.2,56.026
	c1.331,1.333,3.081,2,4.826,2s3.495-0.667,4.826-2c2.666-2.666,2.666-6.987,0-9.653L47.2,30.72z"/>
<path d="M58.027,61.44c-2.737,0-5.309-1.067-7.241-3.002L37.547,45.199l-13.24,13.24c-1.93,1.934-4.502,3-7.24,3
	s-5.309-1.067-7.241-3.002c-3.99-3.99-3.99-10.487,0.002-14.478l13.239-13.24L9.827,17.48C5.835,13.488,5.835,6.99,9.827,3
	c1.93-1.934,4.502-3,7.24-3s5.309,1.067,7.241,3.002l13.239,13.239L50.787,3c1.93-1.934,4.502-3,7.24-3s5.309,1.067,7.241,3.002
	c3.99,3.99,3.99,10.487-0.002,14.478L52.028,30.72l13.239,13.24c3.992,3.992,3.992,10.489,0,14.479
	C63.336,60.373,60.764,61.44,58.027,61.44z M37.547,36.96c0.874,0,1.748,0.333,2.413,1l15.654,15.654
	c1.29,1.29,3.538,1.289,4.825,0.002c1.331-1.331,1.331-3.499,0.002-4.828L44.786,33.133c-1.333-1.333-1.333-3.494,0-4.826
	L60.44,12.653c1.329-1.329,1.329-3.497,0-4.826c-1.29-1.29-3.538-1.289-4.825-0.002L39.96,23.48c-1.331,1.333-3.495,1.333-4.826,0
	L19.48,7.827c-1.29-1.29-3.538-1.289-4.825-0.002c-1.331,1.331-1.331,3.499-0.002,4.828l15.654,15.654
	c1.333,1.333,1.333,3.494,0,4.826L14.653,48.787c-1.329,1.329-1.329,3.497,0,4.826c1.29,1.29,3.538,1.289,4.825,0.002L35.133,37.96
	C35.799,37.294,36.673,36.96,37.547,36.96z"/>
<path style="fill:#EE5281;" d="M176.906,30.72l15.654-15.654c2.666-2.666,2.666-6.987,0-9.653c-2.664-2.666-6.99-2.666-9.653,0
	l-15.654,15.654L151.6,5.414c-2.664-2.666-6.99-2.666-9.653,0c-2.666,2.666-2.666,6.987,0,9.653L157.6,30.72l-15.654,15.654
	c-2.666,2.666-2.666,6.987,0,9.653c1.331,1.333,3.081,2,4.826,2c1.746,0,3.495-0.667,4.826-2l15.654-15.654l15.654,15.654
	c1.331,1.333,3.081,2,4.826,2s3.495-0.667,4.826-2c2.666-2.666,2.666-6.987,0-9.653L176.906,30.72z"/>
<path d="M187.733,61.44c-2.738,0-5.309-1.067-7.241-3.002l-13.239-13.239l-13.24,13.24c-1.93,1.934-4.502,3-7.24,3
	c-2.737,0-5.309-1.067-7.241-3.002c-3.99-3.99-3.99-10.487,0.002-14.478l13.239-13.24l-13.239-13.24
	c-3.992-3.992-3.992-10.489,0-14.479c1.93-1.934,4.502-3,7.24-3c2.738,0,5.309,1.067,7.241,3.002l13.239,13.239L180.494,3
	c1.93-1.934,4.502-3,7.24-3s5.309,1.067,7.241,3.002c3.99,3.99,3.99,10.487-0.002,14.478l-13.239,13.24l13.239,13.24
	c3.992,3.992,3.992,10.489,0,14.479C193.043,60.373,190.471,61.44,187.733,61.44z M167.253,36.96c0.874,0,1.748,0.333,2.413,1
	l15.654,15.654c1.29,1.29,3.538,1.289,4.825,0.002c1.331-1.331,1.331-3.499,0.002-4.828l-15.654-15.654
	c-1.333-1.333-1.333-3.494,0-4.826l15.654-15.654c1.33-1.329,1.33-3.497,0-4.826c-1.29-1.29-3.538-1.289-4.825-0.002L169.667,23.48
	c-1.331,1.333-3.495,1.333-4.826,0L149.187,7.827c-1.29-1.29-3.538-1.289-4.825-0.002c-1.331,1.331-1.331,3.499-0.002,4.828
	l15.654,15.654c1.333,1.333,1.333,3.494,0,4.826L144.36,48.787c-1.329,1.329-1.329,3.497,0,4.826c1.29,1.29,3.538,1.289,4.825,0.002
	L164.84,37.96C165.506,37.294,166.38,36.96,167.253,36.96z"/>
<path style="fill:#EE5281;" d="M112.053,174.08l15.654-15.654c2.666-2.666,2.666-6.987,0-9.653c-2.664-2.666-6.99-2.666-9.653,0
	L102.4,164.427l-15.654-15.654c-2.664-2.666-6.99-2.666-9.653,0c-2.666,2.666-2.666,6.987,0,9.653l15.654,15.654l-15.654,15.654
	c-2.666,2.666-2.666,6.987,0,9.653c1.331,1.333,3.081,2,4.826,2c1.746,0,3.495-0.667,4.826-2l15.654-15.654l15.654,15.654
	c1.331,1.333,3.081,2,4.826,2c1.746,0,3.495-0.667,4.826-2c2.666-2.666,2.666-6.987,0-9.653L112.053,174.08z"/>
<path d="M122.88,204.8c-2.738,0-5.309-1.067-7.241-3.002L102.4,188.559L89.16,201.8c-1.93,1.934-4.502,3-7.24,3
	c-2.737,0-5.309-1.067-7.241-3.002c-3.99-3.99-3.99-10.487,0.002-14.478l13.239-13.24L74.68,160.84
	c-3.992-3.992-3.992-10.489,0-14.479c1.93-1.934,4.504-3,7.24-3s5.309,1.067,7.241,3.002l13.239,13.239l13.24-13.24
	c1.93-1.934,4.504-3,7.24-3s5.309,1.067,7.241,3.002c3.99,3.99,3.99,10.487-0.002,14.478l-13.239,13.24l13.239,13.24
	c3.992,3.992,3.992,10.489,0,14.479C128.189,203.733,125.618,204.8,122.88,204.8z M102.4,180.32c0.874,0,1.748,0.333,2.413,1
	l15.654,15.654c1.29,1.29,3.538,1.289,4.825,0.002c1.331-1.331,1.331-3.499,0.002-4.828l-15.654-15.654
	c-1.333-1.333-1.333-3.494,0-4.826l15.654-15.654c1.329-1.33,1.329-3.497,0-4.826c-1.29-1.29-3.538-1.289-4.825-0.002
	l-15.655,15.655c-1.331,1.333-3.495,1.333-4.826,0l-15.654-15.654c-1.29-1.29-3.538-1.289-4.825-0.002
	c-1.331,1.331-1.331,3.499-0.002,4.828l15.654,15.654c1.333,1.333,1.333,3.494,0,4.826l-15.654,15.654
	c-1.33,1.33-1.33,3.497,0,4.826c1.29,1.29,3.538,1.289,4.825,0.002l15.655-15.655C100.652,180.654,101.526,180.32,102.4,180.32z"/>
<path style="fill:#EE5281;" d="M47.2,102.4l15.654-15.654c2.666-2.666,2.666-6.987,0-9.653c-2.664-2.666-6.991-2.666-9.653,0
	L37.547,92.747L21.893,77.094c-2.664-2.666-6.991-2.666-9.653,0c-2.666,2.666-2.666,6.987,0,9.653L27.894,102.4L12.24,118.054
	c-2.666,2.666-2.666,6.987,0,9.653c1.331,1.335,3.081,2,4.826,2s3.495-0.667,4.826-2l15.654-15.654L53.2,127.706
	c1.331,1.333,3.081,2,4.826,2s3.495-0.667,4.826-2c2.666-2.666,2.666-6.987,0-9.653L47.2,102.4z"/>
<path d="M58.027,133.12c-2.737,0-5.309-1.067-7.241-3.002l-13.239-13.239l-13.24,13.24c-1.93,1.934-4.502,3-7.24,3
	s-5.309-1.067-7.241-3.002c-3.99-3.99-3.99-10.487,0.002-14.478l13.239-13.24L9.827,89.16c-3.992-3.992-3.992-10.489,0-14.479
	c1.93-1.934,4.502-3,7.24-3s5.309,1.067,7.241,3.002l13.239,13.239l13.24-13.24c1.93-1.934,4.504-3,7.24-3s5.309,1.067,7.241,3.002
	c3.99,3.99,3.99,10.487-0.002,14.478L52.028,102.4l13.239,13.24c3.992,3.992,3.992,10.489,0,14.479
	C63.336,132.053,60.764,133.12,58.027,133.12z M37.547,108.64c0.874,0,1.748,0.333,2.413,1l15.654,15.654
	c1.29,1.29,3.538,1.289,4.825,0.002c1.331-1.331,1.331-3.499,0.002-4.828l-15.654-15.654c-1.333-1.333-1.333-3.494,0-4.826
	L60.44,84.333c1.329-1.33,1.329-3.497,0-4.826c-1.29-1.29-3.538-1.289-4.825-0.002L39.96,95.16c-1.331,1.333-3.495,1.333-4.826,0
	L19.48,79.507c-1.29-1.29-3.538-1.289-4.825-0.002c-1.331,1.331-1.331,3.499-0.002,4.828l15.654,15.654
	c1.333,1.333,1.333,3.494,0,4.826l-15.654,15.654c-1.329,1.33-1.329,3.497,0,4.826c1.29,1.29,3.538,1.289,4.825,0.002l15.655-15.655
	C35.799,108.974,36.673,108.64,37.547,108.64z"/>
<path style="fill:#26BBEC;" d="M102.4,58.027c-15.056,0-27.307-12.25-27.307-27.307S87.344,3.413,102.4,3.413
	s27.307,12.25,27.307,27.307S117.456,58.027,102.4,58.027z M102.4,17.067c-7.528,0-13.653,6.124-13.653,13.653
	s6.125,13.653,13.653,13.653s13.653-6.124,13.653-13.653S109.928,17.067,102.4,17.067z"/>
<path d="M102.4,61.44c-16.939,0-30.72-13.781-30.72-30.72S85.461,0,102.4,0s30.72,13.781,30.72,30.72S119.339,61.44,102.4,61.44z
	 M102.4,6.827c-13.175,0-23.893,10.718-23.893,23.893S89.225,54.613,102.4,54.613s23.893-10.718,23.893-23.893
	S115.575,6.827,102.4,6.827z M102.4,47.787c-9.411,0-17.067-7.656-17.067-17.067s7.656-17.067,17.067-17.067
	s17.067,7.656,17.067,17.067S111.811,47.787,102.4,47.787z M102.4,20.48c-5.647,0-10.24,4.593-10.24,10.24s4.593,10.24,10.24,10.24
	s10.24-4.593,10.24-10.24S108.047,20.48,102.4,20.48z"/>
<path style="fill:#26BBEC;" d="M102.4,129.707c-15.056,0-27.307-12.25-27.307-27.307s12.25-27.307,27.307-27.307
	s27.307,12.25,27.307,27.307S117.456,129.707,102.4,129.707z M102.4,88.747c-7.528,0-13.653,6.124-13.653,13.653
	s6.125,13.653,13.653,13.653s13.653-6.124,13.653-13.653S109.928,88.747,102.4,88.747z"/>
<path d="M102.4,133.12c-16.939,0-30.72-13.781-30.72-30.72s13.781-30.72,30.72-30.72s30.72,13.781,30.72,30.72
	S119.339,133.12,102.4,133.12z M102.4,78.507c-13.175,0-23.893,10.718-23.893,23.893s10.718,23.893,23.893,23.893
	s23.893-10.718,23.893-23.893S115.575,78.507,102.4,78.507z M102.4,119.467c-9.411,0-17.067-7.656-17.067-17.067
	s7.656-17.067,17.067-17.067s17.067,7.656,17.067,17.067S111.811,119.467,102.4,119.467z M102.4,92.16
	c-5.647,0-10.24,4.593-10.24,10.24s4.593,10.24,10.24,10.24s10.24-4.593,10.24-10.24S108.047,92.16,102.4,92.16z"/>
<path style="fill:#26BBEC;" d="M34.133,201.387c-15.056,0-27.307-12.25-27.307-27.307s12.25-27.307,27.307-27.307
	s27.307,12.25,27.307,27.307S49.19,201.387,34.133,201.387z M34.133,160.427c-7.528,0-13.653,6.124-13.653,13.653
	s6.125,13.653,13.653,13.653s13.653-6.124,13.653-13.653S41.661,160.427,34.133,160.427z"/>
<path d="M34.133,204.8c-16.939,0-30.72-13.781-30.72-30.72s13.781-30.72,30.72-30.72s30.72,13.781,30.72,30.72
	S51.072,204.8,34.133,204.8z M34.133,150.187c-13.175,0-23.893,10.718-23.893,23.893c0,13.175,10.718,23.893,23.893,23.893
	s23.893-10.718,23.893-23.893C58.027,160.905,47.309,150.187,34.133,150.187z M34.133,191.147c-9.411,0-17.067-7.656-17.067-17.067
	s7.656-17.067,17.067-17.067S51.2,164.669,51.2,174.08S43.544,191.147,34.133,191.147z M34.133,163.84
	c-5.647,0-10.24,4.593-10.24,10.24s4.593,10.24,10.24,10.24s10.24-4.593,10.24-10.24S39.781,163.84,34.133,163.84z"/>
<path style="fill:#26BBEC;" d="M170.667,201.387c-15.056,0-27.307-12.25-27.307-27.307s12.25-27.307,27.307-27.307
	s27.307,12.25,27.307,27.307S185.723,201.387,170.667,201.387z M170.667,160.427c-7.528,0-13.653,6.124-13.653,13.653
	s6.125,13.653,13.653,13.653c7.528,0,13.653-6.124,13.653-13.653S178.195,160.427,170.667,160.427z"/>
<path d="M170.667,204.8c-16.939,0-30.72-13.781-30.72-30.72s13.781-30.72,30.72-30.72s30.72,13.781,30.72,30.72
	S187.605,204.8,170.667,204.8z M170.667,150.187c-13.175,0-23.893,10.718-23.893,23.893c0,13.175,10.718,23.893,23.893,23.893
	c13.175,0,23.893-10.718,23.893-23.893C194.56,160.905,183.842,150.187,170.667,150.187z M170.667,191.147
	c-9.411,0-17.067-7.656-17.067-17.067s7.656-17.067,17.067-17.067s17.067,7.656,17.067,17.067S180.077,191.147,170.667,191.147z
	 M170.667,163.84c-5.647,0-10.24,4.593-10.24,10.24s4.593,10.24,10.24,10.24s10.24-4.593,10.24-10.24S176.314,163.84,170.667,163.84
	z"/>
<path style="fill:#26BBEC;" d="M170.667,129.707c-15.056,0-27.307-12.25-27.307-27.307s12.25-27.307,27.307-27.307
	s27.307,12.25,27.307,27.307S185.723,129.707,170.667,129.707z M170.667,88.747c-7.528,0-13.653,6.124-13.653,13.653
	s6.125,13.653,13.653,13.653c7.528,0,13.653-6.124,13.653-13.653S178.195,88.747,170.667,88.747z"/>
<path d="M170.667,133.12c-16.939,0-30.72-13.781-30.72-30.72s13.781-30.72,30.72-30.72s30.72,13.781,30.72,30.72
	S187.605,133.12,170.667,133.12z M170.667,78.507c-13.175,0-23.893,10.718-23.893,23.893s10.718,23.893,23.893,23.893
	c13.175,0,23.893-10.718,23.893-23.893S183.842,78.507,170.667,78.507z M170.667,119.467c-9.411,0-17.067-7.656-17.067-17.067
	s7.656-17.067,17.067-17.067s17.067,7.656,17.067,17.067S180.077,119.467,170.667,119.467z M170.667,92.16
	c-5.647,0-10.24,4.593-10.24,10.24s4.593,10.24,10.24,10.24s10.24-4.593,10.24-10.24S176.314,92.16,170.667,92.16z"/>
<g>
</g>
<g>
</g>
<g>
</g>
<g>
</g>
<g>
</g>
<g>
</g>
<g>
</g>
<g>
</g>
<g>
</g>
<g>
</g>
<g>
</g>
<g>
</g>
<g>
</g>
<g>
</g>
<g>
</g>
</svg>
