<?xml version="1.0" encoding="iso-8859-1"?>
<!-- Generator: Adobe Illustrator 19.0.0, SVG Export Plug-In . SVG Version: 6.00 Build 0)  -->
<svg version="1.1" id="Capa_1" xmlns="http://www.w3.org/2000/svg" xmlns:xlink="http://www.w3.org/1999/xlink" x="0px" y="0px"
	 viewBox="0 0 512 512" style="enable-background:new 0 0 512 512;" xml:space="preserve">
<g>
	<polygon style="fill:#C5C9F7;" points="436.824,511.751 0.248,511.751 30.223,481.78 436.824,481.78 	"/>
	<rect x="270.987" y="412.38" style="fill:#C5C9F7;" width="160.844" height="29.971"/>
</g>
<polygon style="fill:#36CC8F;" points="511.996,89.921 153.276,448.642 0.004,512 63.356,358.721 422.077,0 "/>
<polygon style="fill:#00BA64;" points="511.996,89.921 153.276,448.642 0.004,512 467.04,44.963 "/>
<rect x="374.504" y="19.712" transform="matrix(-0.7071 0.7071 -0.7071 -0.7071 790.7452 -160.9487)" style="fill:#FFA920;" width="108.404" height="127.165"/>
<rect x="396.985" y="73.985" transform="matrix(-0.7071 0.7071 -0.7071 -0.7071 845.0183 -138.4701)" style="fill:#FF8800;" width="108.404" height="63.578"/>
<polygon style="fill:#FFD9A7;" points="153.276,448.642 0.004,512 63.356,358.721 "/>
<g>
	
		<rect x="374.371" y="59.046" transform="matrix(-0.7071 0.7071 -0.7071 -0.7071 751.3851 -65.9763)" style="fill:#EFE6DE;" width="29.971" height="127.165"/>
	
		<rect x="329.167" y="104.262" transform="matrix(-0.7071 0.7071 -0.7071 -0.7071 706.1893 43.1759)" style="fill:#EFE6DE;" width="29.971" height="127.165"/>
</g>
<polygon style="fill:#FFC273;" points="108.319,403.684 153.276,448.642 0.004,512 "/>
<g>
	
		<rect x="396.854" y="113.325" transform="matrix(-0.7071 0.7071 -0.7071 -0.7071 805.6638 -43.49)" style="fill:#DECCBC;" width="29.971" height="63.578"/>
	
		<rect x="334.847" y="175.342" transform="matrix(0.7071 0.7071 -0.7071 0.7071 241.9666 -203.505)" style="fill:#DECCBC;" width="63.578" height="29.971"/>
</g>
<polygon style="fill:#36CC8F;" points="16.559,471.945 0.005,512 40.057,495.443 "/>
<polygon style="fill:#00BA64;" points="28.309,483.694 0.005,512 40.057,495.443 "/>
<polygon style="fill:#00459D;" points="16.559,471.945 0.005,512 40.057,495.443 "/>
<polygon style="fill:#002D6B;" points="28.309,483.694 0.005,512 40.057,495.443 "/>
<g>
</g>
<g>
</g>
<g>
</g>
<g>
</g>
<g>
</g>
<g>
</g>
<g>
</g>
<g>
</g>
<g>
</g>
<g>
</g>
<g>
</g>
<g>
</g>
<g>
</g>
<g>
</g>
<g>
</g>
</svg>
